<?xml version="1.0" encoding="UTF-8"?>
<svg id="Layer_1" xmlns="http://www.w3.org/2000/svg" version="1.1" viewBox="0 0 171 68.4">
  <!-- Generator: Adobe Illustrator 29.1.0, SVG Export Plug-In . SVG Version: 2.1.0 Build 142)  -->
  <defs>
    <style>
      .st0 {
        fill: #eb2028;
      }

      .st1 {
        fill: none;
        stroke: #eb2028;
        stroke-linecap: round;
        stroke-miterlimit: 10;
        stroke-width: 1.1px;
      }
    </style>
  </defs>
  <g>
    <g>
      <g>
        <path d="M109.7,2.2c1.4,0,2.5.3,3,.5l-.6,2.2c-.5-.2-1.3-.5-2.3-.5-2.2,0-3.9,1.3-3.9,4s1.4,4,3.9,4,1.7-.2,2.3-.4l.4,2.2c-.5.2-1.6.5-3.1.5-4.2,0-6.4-2.6-6.4-6.1s3-6.4,6.6-6.4Z"/>
        <path d="M118.6,8.6h0c0-.6-.3-1.3-1.6-1.3s-1.8.3-2.4.7l-.5-1.7c.6-.4,1.8-.8,3.4-.8,2.9,0,3.9,1.7,3.9,3.8v3.1c0,.8,0,1.6.1,2.1h-2.5l-.2-.9h0c-.6.7-1.5,1.1-2.5,1.1-1.8,0-2.8-1.3-2.8-2.7,0-2.3,2.1-3.4,5.2-3.4ZM117.2,12.8c.7,0,1.2-.5,1.4-1,0-.1,0-.3,0-.4v-1c-1.5,0-2.6.4-2.6,1.4s.5,1,1.1,1Z"/>
        <path d="M123.5,8.6c0-1.3,0-2.1,0-2.9h2.4v1.6h.2c.5-1.3,1.5-1.8,2.4-1.8s.4,0,.6,0v2.6c-.2,0-.5,0-.8,0-1,0-1.7.5-1.9,1.4,0,.2,0,.4,0,.6v4.5h-2.8v-5.9Z"/>
        <path d="M134.2,5.5c2.8,0,3.9,2.2,3.9,4.4s0,.9-.1,1.1h-5.7c0,1.1,1.2,1.7,2.5,1.7s1.7-.1,2.4-.4l.4,1.9c-.9.4-2,.6-3.2.6-3,0-4.7-1.7-4.7-4.5s1.4-4.7,4.4-4.7ZM135.5,9.1c0-.6-.3-1.8-1.5-1.8s-1.6,1.1-1.7,1.8h3.2Z"/>
        <path d="M103.7,27.9c.7.4,1.9.8,3,.8s1.9-.5,1.9-1.3-.6-1.2-2-1.7c-2-.7-3.4-1.8-3.4-3.6s1.7-3.6,4.6-3.6,2.4.3,3.1.6l-.6,2.2c-.5-.2-1.4-.6-2.5-.6s-1.8.6-1.8,1.2.7,1.1,2.3,1.7c2.1.8,3.1,1.9,3.1,3.6s-1.5,3.8-4.9,3.8-2.8-.4-3.4-.8l.6-2.3Z"/>
        <path d="M113.5,27.5v-3.6h-1.2v-2h1.2v-1.9l2.7-.6v2.5h2v2h-2v3.2c0,1.1.3,1.5,1.1,1.5s.6,0,.8,0v2.1c-.3.1-1,.3-1.7.3s-1.6-.3-2.1-.8c-.5-.5-.7-1.4-.7-2.6Z"/>
        <path d="M122,30.8c.1-.1.2-.3.2-.4s0-.3-.1-.5l-3.2-8.1h3l1.3,4.3c.1.5.3,1.2.4,1.6h0c.1-.5.3-1.1.4-1.6l1.1-4.3h2.9l-2.1,5.8c-1.3,3.5-2.1,4.9-3.1,5.8-.9.8-2,1.1-2.6,1.2l-.6-2.3c.3,0,.8-.2,1.2-.5.4-.2.9-.6,1.1-1.1Z"/>
        <path d="M129.2,17.9h2.8v12.8h-2.8v-12.8Z"/>
        <path d="M138.1,21.7c2.8,0,3.9,2.2,3.9,4.4s0,.9-.1,1.1h-5.7c0,1.1,1.2,1.7,2.5,1.7s1.7-.1,2.4-.4l.4,1.9c-.9.4-2,.6-3.2.6-3,0-4.7-1.7-4.7-4.5s1.4-4.7,4.4-4.7ZM139.5,25.3c0-.6-.3-1.8-1.5-1.8s-1.6,1.1-1.7,1.8h3.2Z"/>
      </g>
      <g>
        <path d="M38.3,39c.5,0,1.2-.1,2.2-.1s1.7.2,2.2.6c.5.4.8.9.8,1.7s-.2,1.3-.7,1.7c-.6.5-1.4.8-2.3.8s-.4,0-.6,0v2.6h-1.6v-7.1ZM40.5,42.3c.9,0,1.4-.4,1.4-1.2s-.4-1.1-1.3-1.1-.5,0-.7,0v2.1c.1,0,.3,0,.5,0Z"/>
        <path d="M45.4,39c.5,0,1.3-.1,2.2-.1s1.8.2,2.3.6c.4.3.7.8.7,1.5s-.7,1.5-1.3,1.8h0c.5.2.8.7,1,1.4.2.8.4,1.7.6,2h-1.7c-.1-.2-.3-.8-.5-1.7-.2-.9-.5-1.1-1.2-1.2h-.5v2.8h-1.6v-7.1ZM47.7,42.1c.8,0,1.3-.4,1.3-1s-.5-1-1.2-1c-.4,0-.6,0-.7,0v2h.6Z"/>
        <path d="M52.3,42.6c0-2.2,1.4-3.8,3.5-3.8s3.4,1.6,3.4,3.7-1.6,3.7-3.5,3.7-3.4-1.5-3.4-3.7ZM57.4,42.5c0-1.2-.5-2.4-1.7-2.4s-1.7,1.1-1.7,2.4.6,2.4,1.7,2.4,1.7-1.1,1.7-2.4Z"/>
        <path d="M62.2,40.3h-1.9v-1.4h5.5v1.4h-2v5.8h-1.6v-5.8Z"/>
        <path d="M67.6,38.9h4.4v1.3h-2.8v1.5h2.6v1.3h-2.6v1.7h3v1.3h-4.6v-7.2Z"/>
        <path d="M77.8,38.8c.8,0,1.5.2,1.8.3l-.3,1.3c-.3-.1-.8-.3-1.4-.3-1.3,0-2.3.8-2.3,2.4s.9,2.3,2.3,2.3,1-.1,1.4-.2l.2,1.3c-.3.1-1,.3-1.8.3-2.5,0-3.8-1.6-3.8-3.6s1.7-3.8,3.9-3.8Z"/>
        <path d="M82.9,40.3h-1.9v-1.4h5.5v1.4h-2v5.8h-1.6v-5.8Z"/>
        <path d="M88.3,38.9h4.4v1.3h-2.8v1.5h2.6v1.3h-2.6v1.7h3v1.3h-4.6v-7.2Z"/>
        <path d="M94.9,39c.6,0,1.4-.1,2.2-.1,1.4,0,2.3.3,3,.8.7.6,1.2,1.4,1.2,2.7s-.5,2.3-1.2,2.9c-.8.6-1.9.9-3.3.9s-1.5,0-1.9-.1v-7.1ZM97.1,44.9c1.5,0,2.4-.8,2.4-2.5s-.9-2.3-2.3-2.3-.6,0-.7,0v4.7c.1,0,.4,0,.6,0Z"/>
      </g>
      <polyline class="st1" points="105.3 41.3 140.3 41.3 140.3 34.6"/>
      <polyline class="st1" points="102.7 44.3 136.1 44.3 136.1 37.6"/>
    </g>
    <path class="st0" d="M86.4,2.7l-4.4,17.7-4.4-17.7h-12.6v6.4l-.8-1.9c-3.5-6.5-16.2-6.6-21.3-2.1-2.2,1.9-3.2,4.7-3.3,7.6h8.5c0-1.7,1.2-3.1,2.8-3.5,1.2-.4,3.3-.3,4.4.4,1.4,1,1.5,3.3,0,4.2-.5.3-1.5.5-2,.5h-3.6v5.9h3.3c0,0,.7.2.8.2,3.1,1.1,2.6,5.4-.6,6.1-3.6.8-6.2-2-6-5.5h-8.8c0,4.9,2.1,9.4,6.7,11.4,5.4,2.4,15.4,1.7,19-3.6l.9-1.6v5.7h8.5V14.1l4.9,19.1h7.5s4.8-19.1,4.8-19.1v19.1h8.7V2.7h-12.7ZM65,20.6s-1.4-1.9-1.9-2.4c-.5-.5-2.2-1.5-2.2-1.5,0,0,1.7-1.2,2.2-1.7.5-.5,1.9-2.2,1.9-2.2v3.9s0,3.9,0,3.9Z"/>
  </g>
  <path class="st0" d="M86.4,2.7l-4.4,17.7-4.4-17.7h-12.6v6.4l-.8-1.9c-3.5-6.5-16.2-6.6-21.3-2.1-2.2,1.9-3.2,4.7-3.3,7.6h8.5c0-1.7,1.2-3.1,2.8-3.5,1.2-.4,3.3-.3,4.4.4,1.4,1,1.5,3.3,0,4.2-.5.3-1.5.5-2,.5h-3.6v5.9h3.3c0,0,.7.2.8.2,3.1,1.1,2.6,5.4-.6,6.1-3.6.8-6.2-2-6-5.5h-8.8c0,4.9,2.1,9.4,6.7,11.4,5.4,2.4,15.4,1.7,19-3.6l.9-1.6v5.7h8.5V14.1l4.9,19.1h7.5s4.8-19.1,4.8-19.1v19.1h8.7V2.7h-12.7ZM65,20.6s-1.4-1.9-1.9-2.4c-.5-.5-2.2-1.5-2.2-1.5,0,0,1.7-1.2,2.2-1.7.5-.5,1.9-2.2,1.9-2.2v3.9s0,3.9,0,3.9Z"/>
  <g>
    <rect class="st0" x="39.5" y="54" width="1.7" height="1.5"/>
    <rect class="st0" x="41.8" y="54" width="1.7" height="1.5"/>
    <rect class="st0" x="48.2" y="64" width="1.7" height="1.5"/>
    <rect class="st0" x="45.9" y="64" width="1.7" height="1.5"/>
    <path class="st0" d="M49.4,56.6h-1.8v4.5h-3.3v-4.5h-2.8c-.7,0-1.2.1-1.7.4-.5.2-.8.6-1,1-.2.5-.3,1-.3,1.7s.1,1.2.3,1.7c.2.4.6.8,1,1,.5.2,1,.3,1.7.3h7.9v-6.1ZM40.7,61c-.2,0-.3-.2-.4-.4,0-.2-.1-.5-.1-.9s0-.8.1-1c0-.2.2-.4.4-.4.2,0,.4-.1.7-.1h1v2.9h-1c-.3,0-.5,0-.7,0Z"/>
    <path class="st0" d="M63.9,61.1h-2.5v-1.4c0-.8-.1-1.4-.4-1.8-.2-.5-.6-.8-1.1-1-.5-.2-1.1-.3-1.8-.3s-1,0-1.4.1c-.4,0-.7.1-.9.2,0,.2,0,.4-.2.7,0,.3-.1.6-.1,1,0,.4,0,.8,0,1.2s0,.8,0,1.1c0,0,0,.1,0,.2h-2.5v-7h-1.8v8.6h4.3c0,.2,0,.5,0,.7s0,.6,0,.9c0,.3,0,.6.1.8,0,.2.1.4.2.6.2,0,.5.1.9.2.4,0,.9,0,1.4,0,.7,0,1.3,0,1.8-.2.5-.2.8-.4,1.1-.8.2-.4.4-.9.4-1.5v-.8h4.3v-6.1h-1.8v4.5ZM57.4,60.7c0-.3,0-.6,0-.8s0-.6,0-.9c0-.2,0-.5,0-.7.2,0,.5,0,.7,0,.4,0,.6,0,.9.1.2,0,.4.2.4.5,0,.2.1.5.1.9v1.4h-2.2c0-.1,0-.3,0-.4ZM59.6,63.5c0,.2,0,.4-.1.6,0,.1-.2.2-.4.3-.2,0-.5,0-.9,0s-.5,0-.8,0c0-.1,0-.2,0-.3,0-.2,0-.4,0-.6s0-.4,0-.6c0,0,0,0,0-.2h2.2v.7Z"/>
    <rect class="st0" x="63.9" y="54" width="1.8" height="1.5"/>
    <polygon class="st0" points="74.9 61.1 73 61.1 73 55.9 71.2 55.9 71.2 61.1 69.6 61.1 69.6 62.7 76.7 62.7 76.7 54.2 74.9 54.2 74.9 61.1"/>
    <path class="st0" d="M90,56.9c-.5-.2-1.1-.3-1.8-.3s-1,0-1.4.1c-.4,0-.7.1-.9.2,0,.2,0,.4-.2.7,0,.3-.1.7-.1,1,0,.4,0,.8,0,1.2s0,.8,0,1.1c0,0,0,.1,0,.2h-2.6v-7h-1.8v8.6h10.3v-3c0-.8-.1-1.4-.4-1.8-.2-.5-.6-.8-1.1-1ZM87.4,60.7c0-.3,0-.6,0-.9s0-.6,0-.9c0-.2,0-.5,0-.7.2,0,.5,0,.7,0,.4,0,.7,0,.9.1.2,0,.4.2.4.5,0,.2.1.5.1.9v1.4h-2.2c0-.1,0-.3,0-.5Z"/>
    <path class="st0" d="M105.7,61.1h-2.4c-.2,0-.3,0-.4,0-.1,0-.2,0-.3,0,0,0-.2-.1-.3-.2l-1,1.3c.3.2.6.4,1,.5.4,0,.7.1,1.1.1h.5c0,.5-.1.8-.3,1.1-.2.2-.6.4-1.1.4h-3.4c-.4,0-.7,0-1-.2-.3-.1-.5-.3-.7-.5-.2-.2-.2-.5-.2-.8s0-.4,0-.8c0-.4.1-.8.2-1.3l-1.8-.2c0,.4-.1.7-.1,1s0,.6,0,.8c0,.2,0,.4,0,.6,0,.4,0,.8.3,1.2.2.4.5.7.8,1s.7.5,1.2.6,1,.2,1.5.2h3.4c.7,0,1.2-.1,1.7-.4.5-.3.9-.6,1.1-1.1.3-.5.4-1,.4-1.6h1.9v-8.6h-1.8v7Z"/>
    <rect class="st0" x="109.4" y="54.2" width="1.8" height="8.6"/>
    <path class="st0" d="M110.2,65.6c0,0,0-.2,0-.3,0-.2,0-.3.2-.4.1-.1.2-.2.4-.2s.1,0,.2,0c0,0,.1,0,.2,0l.4-.8c-.1,0-.2-.1-.4-.2-.2,0-.3,0-.5,0-.3,0-.6,0-.8.2-.2.1-.4.3-.6.5s-.2.5-.2.8,0,.2,0,.3h-.3v.9h3.1v-.9h-1.6s0,0,0,0Z"/>
    <rect class="st0" x="116.4" y="54" width="1.7" height="1.5"/>
    <rect class="st0" x="118.7" y="54" width="1.7" height="1.5"/>
    <rect class="st0" x="125.1" y="64" width="1.7" height="1.5"/>
    <path class="st0" d="M126.3,56.6h-1.8v4.5h-3.3v-4.5h-2.8c-.7,0-1.2.1-1.7.4-.5.2-.8.6-1,1-.2.5-.3,1-.3,1.7s.1,1.2.3,1.7c.2.4.6.8,1,1,.5.2,1,.3,1.7.3h7.9v-6.1ZM117.6,61c-.2,0-.3-.2-.4-.4,0-.2-.1-.5-.1-.9s0-.8.1-1c0-.2.2-.4.4-.4.2,0,.4-.1.7-.1h1v2.9h-1c-.3,0-.5,0-.7,0Z"/>
    <rect class="st0" x="122.8" y="64" width="1.7" height="1.5"/>
    <rect class="st0" x="132.5" y="54" width="1.8" height="1.5"/>
    <path class="st0" d="M138.8,61.1c-.1-.1-.2-.3-.3-.5-.1-.3-.2-.5-.2-.8s0-.6.2-.9.3-.4.6-.6.5-.2.8-.2.3,0,.5,0c.2,0,.3,0,.5.1l.5-1.5c-.2,0-.5-.1-.7-.2-.3,0-.5,0-.7,0-.5,0-.9,0-1.3.2s-.8.4-1.1.7c-.3.3-.6.6-.7,1-.2.4-.3.9-.3,1.3s0,.8.3,1.2h-2.4v-4.5h-1.8v4.5h-2.6v-7h-1.8v8.6h13.3v-1.6h-2.7Z"/>
  </g>
</svg>